<?xml version="1.0" encoding="UTF-8"?>
<svg width="32px" height="32px" viewBox="0 0 32 32" version="1.1" xmlns="http://www.w3.org/2000/svg" xmlns:xlink="http://www.w3.org/1999/xlink">
    <title>icon/用户管理-选中@2x</title>
    <g id="商照pc端" stroke="none" stroke-width="1" fill="none" fill-rule="evenodd">
        <g id="Section-#4" transform="translate(-28.000000, -16.203595)">
            <g id="icon/用户管理-选中" transform="translate(28.000000, 16.203595)">
                <rect id="矩形" fill="#FFFFFF" opacity="0" x="0" y="0" width="32" height="32"></rect>
                <g id="编组" transform="translate(6.000000, 6.000000)" stroke="#FFFFFF" stroke-linecap="round" stroke-linejoin="round" stroke-width="2">
                    <path d="M10,7.77777778 C12.1477778,7.77777778 13.8888889,6.03666667 13.8888889,3.88888889 C13.8888889,1.74111667 12.1477778,0 10,0 C7.85222222,0 6.11111111,1.74111667 6.11111111,3.88888889 C6.11111111,6.03666667 7.85222222,7.77777778 10,7.77777778 Z" id="路径"></path>
                    <path d="M0,19.3333333 L0,20 L20,20 L20,19.3333333 C20,16.8442222 20,15.5996667 19.5156111,14.6489444 C19.0895,13.8126667 18.4095556,13.1327222 17.5732778,12.7066111 C16.6225556,12.2222222 15.378,12.2222222 12.8888889,12.2222222 L7.11111111,12.2222222 C4.622,12.2222222 3.37744444,12.2222222 2.42672222,12.7066111 C1.59043333,13.1327222 0.910516667,13.8126667 0.484416667,14.6489444 C0,15.5996667 0,16.8442222 0,19.3333333 Z" id="路径"></path>
                </g>
            </g>
        </g>
    </g>
</svg>